HIERARCHY
ROOT hip
{
	OFFSET 0.000000 0.000000 0.000000
	CHANNELS 6 Xposition Yposition Zposition Zrotation Yrotation Xrotation 
	JOINT lhipjoint
	{
		OFFSET 0.000000 0.000000 0.000000
		CHANNELS 3 Zrotation Yrotation Xrotation
		JOINT lfemur
		{
			OFFSET 1.363060 -1.794630 0.839290
			CHANNELS 3 Zrotation Yrotation Xrotation
			JOINT ltibia
			{
				OFFSET 2.448110 -6.726130 0.000000
				CHANNELS 3 Zrotation Yrotation Xrotation
				JOINT lfoot
				{
					OFFSET 2.562200 -7.039590 0.000000
					CHANNELS 3 Zrotation Yrotation Xrotation
					JOINT ltoes
					{
						OFFSET 0.157640 -0.433110 2.322550
						CHANNELS 3 Zrotation Yrotation Xrotation
						End Site
						{
							OFFSET 0.000000 0.000000 0.000000
						}
					}
				}
			}
		}
	}
	JOINT rhipjoint
	{
		OFFSET 0.000000 0.000000 0.000000
		CHANNELS 3 Zrotation Yrotation Xrotation
		JOINT rfemur
		{
			OFFSET -1.305520 -1.794630 0.839290
			CHANNELS 3 Zrotation Yrotation Xrotation
			JOINT rtibia
			{
				OFFSET -2.542530 -6.985550 0.000000
				CHANNELS 3 Zrotation Yrotation Xrotation
				JOINT rfoot
				{
					OFFSET -2.568260 -7.056230 0.000000
					CHANNELS 3 Zrotation Yrotation Xrotation
					JOINT rtoes
					{
						OFFSET -0.164730 -0.452590 2.363150
						CHANNELS 3 Zrotation Yrotation Xrotation
						End Site
						{
							OFFSET 0.000000 0.000000 0.000000
						}
					}
				}
			}
		}
	}
	JOINT lowerback
	{
		OFFSET 0.000000 0.000000 0.000000
		CHANNELS 3 Zrotation Yrotation Xrotation
		JOINT upperback
		{
			OFFSET 0.028270 2.035590 -0.193380
			CHANNELS 3 Zrotation Yrotation Xrotation
			JOINT thorax
			{
				OFFSET 0.056720 2.048850 -0.042750
				CHANNELS 3 Zrotation Yrotation Xrotation
				JOINT lowerneck
				{
					OFFSET 0.000000 0.000000 0.000000
					CHANNELS 3 Zrotation Yrotation Xrotation
					JOINT upperneck
					{
						OFFSET -0.054170 1.746240 0.172020
						CHANNELS 3 Zrotation Yrotation Xrotation
						JOINT head
						{
							OFFSET 0.104070 1.761360 -0.123970
							CHANNELS 3 Zrotation Yrotation Xrotation
							End Site
							{
								OFFSET 0.000000 0.000000 0.000000
							}
						}
					}
				}
				JOINT lclavicle
				{
					OFFSET 0.000000 0.000000 0.000000
					CHANNELS 3 Zrotation Yrotation Xrotation
					JOINT lhumerus
					{
						OFFSET 3.362410 1.200890 -0.311210
						CHANNELS 3 Zrotation Yrotation Xrotation
						JOINT lradius
						{
							OFFSET 4.983000 -0.000000 -0.000000
							CHANNELS 3 Zrotation Yrotation Xrotation
							JOINT lwrist
							{
								OFFSET 3.483560 -0.000000 -0.000000
								CHANNELS 3 Zrotation Yrotation Xrotation
								JOINT lhand
								{
									OFFSET 0.000000 0.000000 0.000000
									CHANNELS 3 Zrotation Yrotation Xrotation
									JOINT lfingers
									{
										OFFSET 0.715260 -0.000000 -0.000000
										CHANNELS 3 Zrotation Yrotation Xrotation
										End Site
										{
											OFFSET 0.000000 0.000000 0.000000
										}
									}
								}
								JOINT lthumb
								{
									OFFSET 0.000000 0.000000 0.000000
									CHANNELS 3 Zrotation Yrotation Xrotation
									End Site
									{
										OFFSET 0.000000 0.000000 0.000000
									}
								}
							}
						}
					}
				}
				JOINT rclavicle
				{
					OFFSET 0.000000 0.000000 0.000000
					CHANNELS 3 Zrotation Yrotation Xrotation
					JOINT rhumerus
					{
						OFFSET -3.136600 1.374050 -0.404650
						CHANNELS 3 Zrotation Yrotation Xrotation
						JOINT rradius
						{
							OFFSET -5.241900 -0.000000 -0.000000
							CHANNELS 3 Zrotation Yrotation Xrotation
							JOINT rwrist
							{
								OFFSET -3.444170 -0.000000 -0.000000
								CHANNELS 3 Zrotation Yrotation Xrotation
								JOINT rhand
								{
									OFFSET 0.000000 0.000000 0.000000
									CHANNELS 3 Zrotation Yrotation Xrotation
									JOINT rfingers
									{
										OFFSET -0.622530 -0.000000 -0.000000
										CHANNELS 3 Zrotation Yrotation Xrotation
										End Site
										{
											OFFSET 0.000000 0.000000 0.000000
										}
									}
								}
								JOINT rthumb
								{
									OFFSET 0.000000 0.000000 0.000000
									CHANNELS 3 Zrotation Yrotation Xrotation
									End Site
									{
										OFFSET 0.000000 0.000000 0.000000
									}
								}
							}
						}
					}
				}
			}
		}
	}
}
MOTION
Frames: 4
Frame Time: 0.008333
-8.664522 18.243288 -26.938250 -151.603986 -50.224442 155.510083 -0.941013 2.210862 1.009637 -1.152439 -9.872788 -7.685052 3.936855 12.138738 37.461099 2.065032 -15.601108 5.098833 0.320800 -3.640700 -10.067900 0.965872 -3.890588 1.380492 17.087871 7.425556 3.771838 -8.080091 -14.418984 50.053562 2.671395 -17.149287 13.249397 -0.358700 3.847600 -10.648300 1.570459 5.306526 20.515649 -0.369025 5.424454 -1.927583 -3.731733 3.108456 3.803701 -1.344795 -19.602144 -2.513419 8.987525 -26.867533 -9.815496 7.326300 -11.568300 -3.068400 0.828861 5.013190 0.832078 -71.086528 -4.955175 -4.403486 16.027313 -36.807572 -5.664882 -0.974567 0.511114 172.381138 24.558626 8.418870 4.004300 -7.125000 0.000000 0.000000 -2.874200 39.984000 0.355700 0.124666 0.928151 3.863714 70.266550 12.131502 68.363364 -79.093352 62.956108 -32.157370 2.178529 -1.458195 124.609373 3.425248 5.056849 0.147100 7.125000 0.000000 0.000000 22.608100 -27.241000 10.535200 
-8.681843 18.273114 -26.981708 -151.531751 -50.458726 155.231402 -0.960718 2.208123 1.032360 -1.237409 -9.903728 -7.149349 3.846152 12.034353 37.060963 2.039001 -15.138600 5.263739 0.394400 -4.032400 -11.167800 0.957260 -3.864679 1.344099 17.248859 8.211441 3.067524 -8.023300 -14.434587 50.151356 2.321015 -15.455860 13.282043 -0.489800 4.487400 -12.452200 1.440327 5.086968 20.798488 -0.302622 5.136418 -1.921117 -3.451685 2.928971 3.689144 -1.359249 -19.577449 -2.562842 9.149735 -26.900589 -9.930562 7.379400 -11.583600 -3.076300 0.746046 4.950352 0.849203 -70.530352 -5.550766 -2.438939 17.624575 -38.502780 -6.420262 -0.907164 0.423194 169.437263 24.565893 8.679640 4.106400 -7.125000 0.000000 0.000000 -2.816300 40.205000 0.333200 0.178257 0.975181 3.841536 70.118441 11.322931 68.482781 -80.161207 62.891054 -32.882007 2.165349 -1.456895 124.301430 3.500102 4.849425 0.137400 7.125000 0.000000 0.000000 22.686400 -27.420700 10.472300 
-8.699369 18.304579 -27.024755 -151.495569 -50.651314 154.935797 -0.978195 2.206636 1.059840 -1.333073 -9.880962 -6.561652 3.752212 11.925252 36.643789 2.009463 -14.656955 5.466231 0.455600 -4.330200 -12.007500 0.951323 -3.839686 1.303563 17.421503 8.946467 2.300875 -7.974676 -14.451488 50.260418 1.980823 -13.820309 13.392444 -0.609500 4.996900 -13.899700 1.313488 4.891469 21.134110 -0.241423 4.873114 -1.911476 -3.197355 2.761345 3.562938 -1.371196 -19.546394 -2.562964 9.315646 -26.917776 -10.061009 7.443100 -11.591400 -3.104500 0.660623 4.889457 0.866207 -69.945516 -6.112912 -0.548624 19.342847 -40.211002 -7.265699 -0.831355 0.342213 166.753208 24.493912 8.945877 4.192900 -7.125000 0.000000 0.000000 -2.828400 40.417900 0.319800 0.231462 1.025614 3.826576 70.008086 10.503650 68.536393 -81.220048 62.804742 -33.617767 2.161673 -1.469156 124.079176 3.643860 4.627762 0.127700 7.125000 0.000000 0.000000 22.819300 -27.625700 10.422600 
-8.717921 18.339222 -27.067392 -151.465763 -50.838495 154.685190 -0.997471 2.205978 1.089367 -1.428283 -9.888141 -5.999860 3.656170 11.809485 36.211213 1.975702 -14.142488 5.718005 0.524300 -4.640500 -12.886000 0.948294 -3.814144 1.260342 17.593667 9.574772 1.381097 -7.941434 -14.470601 50.381212 1.680759 -12.395171 13.588007 -0.699700 5.347000 -14.900900 1.193071 4.696144 21.434405 -0.183346 4.615317 -1.909477 -2.945350 2.599495 3.423294 -1.438699 -19.508790 -2.544276 9.484346 -26.926137 -10.166107 7.521100 -11.592200 -3.113000 0.573638 4.823916 0.882245 -69.398804 -6.624255 1.205290 21.161536 -41.906056 -8.192394 -0.749634 0.266592 164.308425 24.360889 9.348728 4.323000 -7.125000 0.000000 0.000000 -2.911400 40.766900 0.304200 0.279778 1.075070 3.812530 69.903962 9.691209 68.530275 -82.290979 62.694347 -34.376164 2.158014 -1.465487 123.995001 3.707262 4.492530 0.121400 7.125000 0.000000 0.000000 22.889600 -27.744000 10.389700 
